<?xml version="1.0" encoding="utf-8"?>
<svg version="1.1" xmlns="http://www.w3.org/2000/svg" xmlns:xlink="http://www.w3.org/1999/xlink" x="0px" y="0px" width="35px"
	 height="54px" viewBox="0 0 35 54" style="enable-background:new 0 0 35 54;" xml:space="preserve">
<g id="Dark">
	<rect x="7" style="fill:none;" width="21" height="54"/>
	<path id="Mac_Pro_1_" style="fill:none;" d="M0.07,0h34.86v54H0.07V0z"/>
	<path style="fill:#F5F5F7;" d="M33.34,49.63v-0.18v-1.92h1.59V14.08h-1.71v0v-3.8c0-0.42-0.33-0.75-0.74-0.75
		c-0.41,0-0.74,0.34-0.74,0.75v3.8v0H3.45v0v-3.8c0-0.42-0.33-0.75-0.74-0.75s-0.74,0.34-0.74,0.75v3.8v0H0v33.44h1.66v1.84v0.08
		v0.19c0,0.01,0,0.03,0,0.04c0,0.03,0,0.05-0.01,0.08c0,0.03-0.01,0.05-0.03,0.08c-0.01,0.03-0.03,0.05-0.05,0.07
		c-0.02,0.02-0.04,0.04-0.07,0.05c-0.02,0.01-0.05,0.02-0.08,0.03c-0.03,0-0.05,0.01-0.08,0.01H0.34v0H0.16v0.99h4.25v-0.99H4.25
		H3.21c-0.03,0-0.05,0-0.08-0.01c-0.03-0.01-0.05-0.01-0.08-0.03c-0.02-0.01-0.05-0.03-0.07-0.05c-0.02-0.02-0.04-0.04-0.05-0.07
		c-0.01-0.02-0.02-0.05-0.03-0.08c0-0.03-0.01-0.05-0.01-0.08c0-0.01,0-0.03,0-0.04v0v-0.18v-1.92h29.18v1.84v0.08v0.19
		c0,0.01,0,0.03,0,0.04c0,0.03,0,0.05-0.01,0.08c0,0.03-0.01,0.05-0.03,0.08c-0.01,0.03-0.03,0.05-0.05,0.07
		c-0.02,0.02-0.04,0.04-0.07,0.05c-0.02,0.01-0.05,0.02-0.08,0.03c-0.03,0-0.05,0.01-0.08,0.01h-1.01v0h-0.19v0.99h4.25v-0.99h-0.16
		h-1.04c-0.03,0-0.05,0-0.08-0.01c-0.03-0.01-0.05-0.01-0.08-0.03c-0.02-0.01-0.05-0.03-0.07-0.05c-0.02-0.02-0.04-0.04-0.05-0.07
		c-0.01-0.02-0.02-0.05-0.03-0.08c0-0.03-0.01-0.05-0.01-0.08C33.34,49.66,33.34,49.65,33.34,49.63L33.34,49.63z M17.98,25.92
		c0.32-0.4,0.88-0.68,1.33-0.7c0.05,0.54-0.16,1.07-0.47,1.47c-0.32,0.38-0.83,0.69-1.34,0.65C17.43,26.81,17.69,26.26,17.98,25.92z
		 M20.57,33.25c-0.38,0.56-0.76,1.12-1.38,1.13c-0.6,0.01-0.8-0.36-1.48-0.36c-0.69,0-0.91,0.35-1.47,0.37
		c-0.6,0.02-1.05-0.6-1.43-1.16c-0.77-1.14-1.36-3.21-0.57-4.61c0.39-0.7,1.1-1.14,1.86-1.15c0.59-0.01,1.13,0.39,1.48,0.39
		c0.35,0,0.98-0.47,1.73-0.43c0.29,0.02,1.12,0.11,1.65,0.91c-0.04,0.03-0.99,0.59-0.97,1.75c0.01,1.39,1.19,1.85,1.21,1.86
		C21.17,31.99,21,32.61,20.57,33.25z"/>
</g>
<g id="Light">
</g>
</svg>
