<?xml version="1.0" standalone="no"?>
<!DOCTYPE svg PUBLIC "-//W3C//DTD SVG 20010904//EN"
 "http://www.w3.org/TR/2001/REC-SVG-20010904/DTD/svg10.dtd">
<svg version="1.0" xmlns="http://www.w3.org/2000/svg"
 width="700.000000pt" height="700.000000pt" viewBox="0 0 700.000000 700.000000"
 preserveAspectRatio="xMidYMid meet">
<metadata>
Created by potrace 1.11, written by Peter Selinger 2001-2013
</metadata>
<g transform="translate(0.000000,700.000000) scale(0.100000,-0.100000)"
fill="#000000" stroke="none">
<path d="M2620 6993 c-419 -42 -754 -139 -1100 -320 -534 -279 -987 -750
-1243 -1292 -188 -399 -270 -763 -271 -1201 -1 -193 8 -381 19 -400 1 -3 6
-29 9 -59 30 -252 152 -622 292 -886 165 -312 404 -613 654 -825 36 -30 67
-58 70 -61 3 -3 48 -38 101 -77 379 -280 850 -473 1299 -531 157 -21 220 -25
390 -25 248 0 368 12 595 61 300 63 602 181 849 329 49 30 91 54 93 54 7 0
189 133 254 186 36 30 68 54 70 54 2 0 4 -44 3 -97 0 -54 3 -113 8 -132 7 -26
198 -222 863 -888 564 -563 866 -859 889 -868 48 -20 90 -19 134 4 45 24 364
344 386 388 20 40 20 83 1 130 -11 25 -280 301 -858 878 -463 463 -855 850
-871 860 -22 15 -51 20 -130 22 -55 1 -107 2 -114 2 -9 1 -2 15 17 39 73 87
198 265 262 373 60 101 179 337 179 355 0 3 7 20 15 37 26 56 103 299 124 394
29 127 40 184 56 305 25 181 25 609 0 708 -2 8 -7 40 -10 70 -3 30 -8 62 -10
70 -2 8 -7 31 -10 50 -10 63 -54 233 -84 325 -46 146 -98 270 -178 427 -368
724 -1032 1255 -1823 1459 -63 17 -130 32 -150 35 -67 10 -93 15 -99 18 -3 2
-35 7 -71 11 -36 3 -78 9 -95 11 -36 6 -466 12 -515 7z m396 -657 c51 -4 102
-9 115 -11 13 -3 41 -7 64 -10 74 -11 100 -16 160 -31 78 -20 195 -54 220 -65
11 -4 61 -24 110 -44 465 -189 883 -577 1109 -1030 122 -245 181 -441 221
-730 13 -92 13 -444 1 -520 -4 -22 -9 -53 -11 -70 -2 -16 -11 -66 -20 -110
-10 -44 -19 -89 -21 -101 -6 -33 -61 -196 -94 -279 -131 -330 -387 -674 -654
-880 -22 -16 -51 -39 -65 -51 -98 -79 -304 -197 -441 -254 -41 -17 -84 -35
-95 -40 -58 -27 -289 -91 -375 -104 -19 -3 -62 -11 -95 -17 -95 -17 -444 -20
-560 -4 -308 41 -566 127 -830 274 -56 32 -194 122 -226 149 -8 6 -43 35 -79
64 -64 52 -192 176 -261 253 -39 44 -179 231 -179 239 0 2 -17 31 -38 63 -43
65 -127 234 -165 333 -73 186 -124 402 -142 600 -12 128 -7 360 10 480 2 14 6
48 10 75 10 76 70 300 104 395 53 144 218 461 261 500 3 3 31 40 63 83 125
167 343 370 531 493 89 57 285 160 381 201 101 41 296 98 410 117 17 3 41 8
55 11 56 11 86 14 188 21 59 3 108 7 109 8 4 3 146 -2 229 -8z"/>
<path d="M2683 5564 c-46 -23 -58 -61 -58 -196 0 -74 -3 -118 -10 -119 -235
-16 -439 -164 -526 -381 -49 -122 -59 -284 -24 -405 49 -167 172 -316 320
-387 62 -30 33 -20 390 -127 165 -49 312 -95 328 -101 36 -14 82 -67 97 -112
31 -94 -33 -214 -123 -231 -18 -4 -136 -5 -262 -3 l-230 3 -69 33 c-105 50
-122 46 -225 -52 -101 -97 -131 -129 -132 -146 -1 -8 -3 -25 -4 -37 -5 -48 44
-93 163 -153 81 -41 170 -68 257 -79 l49 -6 1 -128 c2 -191 18 -204 234 -202
190 1 202 13 203 205 1 72 5 118 12 122 6 4 26 8 44 8 55 0 182 48 254 96 321
214 366 674 93 950 -91 93 -166 132 -355 189 -164 49 -318 96 -462 140 -74 22
-92 32 -121 66 -73 84 -58 215 30 273 39 26 39 26 273 27 240 1 290 -4 353
-40 88 -49 115 -40 242 84 103 100 105 103 105 148 0 56 -28 88 -121 140 -103
58 -216 93 -324 101 -19 1 -20 9 -22 129 -2 145 -11 169 -68 193 -50 20 -269
19 -312 -2z"/>
</g>
</svg>
